<svg data-v-423bf9ae="" xmlns="http://www.w3.org/2000/svg" viewBox="0 0 320.8505704060301 60" class="font"><!----><!----><!----><g data-v-423bf9ae="" id="c880035f-1e18-4d3f-8afa-04fcf459623d" fill="white" transform="matrix(6.007272368950983,0,0,6.007272368950983,-2.523050603783531,-22.347053622785673)"><path d="M5.95 13.51L5.95 12.74Q5.43 13.24 4.82 13.48Q4.21 13.71 3.60 13.69Q2.98 13.66 2.41 13.41Q1.83 13.15 1.39 12.66Q0.95 12.18 0.69 11.51Q0.42 10.84 0.42 9.98L0.42 9.98Q0.42 9.16 0.71 8.47Q0.99 7.78 1.48 7.29Q1.96 6.79 2.58 6.52Q3.19 6.26 3.86 6.29L3.86 6.29Q4.56 6.31 4.96 6.58Q5.36 6.85 5.54 7.20Q5.71 7.55 5.71 7.90Q5.70 8.26 5.57 8.48L5.57 8.48Q5.33 8.15 4.91 8.03Q4.48 7.91 4.10 7.91L4.10 7.91Q3.47 7.91 3.04 8.22Q2.62 8.53 2.40 8.99Q2.18 9.45 2.18 9.99Q2.18 10.53 2.39 10.99Q2.60 11.45 3.02 11.76Q3.44 12.07 4.09 12.07L4.09 12.07Q4.63 12.07 4.99 11.82Q5.35 11.58 5.56 11.19Q5.77 10.79 5.86 10.31Q5.95 9.83 5.95 9.35L5.95 9.35L5.95 3.74Q6.78 3.77 7.25 4.19Q7.71 4.61 7.71 5.17L7.71 5.17L7.71 13.51L5.95 13.51ZM9.11 6.29L10.95 6.29L10.95 9.76Q10.95 10.01 10.96 10.30Q10.96 10.58 11.01 10.86Q11.06 11.13 11.18 11.37Q11.30 11.61 11.54 11.77L11.54 11.77Q11.69 11.89 11.89 11.94Q12.10 12.00 12.31 12.00Q12.52 12.00 12.71 11.94Q12.91 11.89 13.08 11.77L13.08 11.77Q13.31 11.62 13.43 11.39Q13.55 11.16 13.60 10.89Q13.65 10.63 13.65 10.35Q13.65 10.07 13.65 9.81L13.65 9.81L13.65 7.73Q13.64 6.97 14.14 6.60Q14.64 6.23 15.46 6.26L15.46 6.26L15.46 9.34Q15.47 10.29 15.39 10.93Q15.32 11.56 15.16 11.93L15.16 11.93Q14.76 12.87 14.01 13.27Q13.27 13.68 12.28 13.68L12.28 13.68Q11.20 13.68 10.43 13.20Q9.66 12.73 9.32 11.68L9.32 11.68Q9.23 11.35 9.17 10.80Q9.11 10.25 9.11 9.59L9.11 9.59L9.11 6.29ZM22.27 13.52L22.27 12.73Q21.74 13.24 21.12 13.48Q20.50 13.72 19.87 13.70Q19.24 13.68 18.64 13.41Q18.05 13.15 17.59 12.65Q17.14 12.15 16.86 11.46Q16.59 10.77 16.59 9.88L16.59 9.88Q16.59 9.04 16.88 8.33Q17.18 7.62 17.68 7.11Q18.17 6.61 18.81 6.34Q19.45 6.06 20.13 6.09L20.13 6.09Q20.80 6.12 21.21 6.39Q21.62 6.66 21.80 7.03Q21.99 7.39 22.00 7.76Q22.01 8.13 21.88 8.36L21.88 8.36Q21.64 8.01 21.21 7.89Q20.78 7.77 20.37 7.77L20.37 7.77Q19.73 7.77 19.29 8.09Q18.86 8.40 18.63 8.88Q18.41 9.35 18.40 9.91Q18.40 10.46 18.61 10.93Q18.83 11.41 19.27 11.73Q19.71 12.04 20.37 12.04L20.37 12.04Q20.93 12.04 21.29 11.79Q21.66 11.54 21.88 11.14Q22.09 10.74 22.18 10.24Q22.27 9.74 22.27 9.25L22.27 9.25L22.27 7.04L22.27 6.27L24.09 6.27L24.09 13.52L22.27 13.52ZM26.25 6.33L26.25 5.15Q26.25 4.76 26.40 4.49Q26.54 4.21 26.79 4.05Q27.03 3.88 27.36 3.80Q27.68 3.72 28.01 3.72L28.01 3.72L28.01 6.33L29.64 6.33Q29.64 6.61 29.59 6.87Q29.54 7.14 29.40 7.36Q29.26 7.57 29.02 7.71Q28.78 7.84 28.41 7.84L28.41 7.84L28.01 7.84L28.01 11.80Q28.01 12.03 28.18 12.12Q28.35 12.21 28.57 12.20Q28.80 12.19 29.02 12.10Q29.25 12.00 29.34 11.83L29.34 11.83Q29.53 12.29 29.37 12.65Q29.20 13.01 28.86 13.22Q28.52 13.44 28.06 13.50Q27.61 13.57 27.21 13.43Q26.81 13.30 26.53 12.96Q26.25 12.61 26.25 12.03L26.25 12.03L26.25 7.84L25.35 7.84L25.35 6.33L26.25 6.33ZM34.27 6.10L34.27 6.10Q35.38 6.10 36.24 6.64Q37.10 7.17 37.59 7.99Q38.08 8.82 38.12 9.83Q38.15 10.84 37.60 11.80L37.60 11.80Q37.14 12.60 36.40 13.08Q35.66 13.55 34.82 13.67Q33.98 13.79 33.13 13.53Q32.28 13.27 31.61 12.60L31.61 12.60Q30.86 11.83 30.60 10.82Q30.35 9.81 30.65 8.81L30.65 8.81Q30.77 8.40 31.06 8.13Q31.35 7.87 31.71 7.74Q32.07 7.62 32.47 7.63Q32.86 7.64 33.19 7.79Q33.53 7.94 33.76 8.21Q33.99 8.48 34.03 8.88L34.03 8.88Q33.82 8.72 33.53 8.71Q33.24 8.71 32.96 8.84Q32.69 8.97 32.50 9.25Q32.31 9.52 32.31 9.93L32.31 9.93Q32.31 10.63 32.61 11.09Q32.90 11.55 33.34 11.78Q33.78 12.01 34.29 12.01Q34.80 12.01 35.25 11.77Q35.69 11.54 35.98 11.07Q36.27 10.60 36.27 9.90L36.27 9.90Q36.27 9.35 36.08 8.93Q35.88 8.51 35.55 8.24Q35.22 7.97 34.79 7.86Q34.36 7.76 33.87 7.85L33.87 7.85Q33.66 7.60 33.36 7.46Q33.05 7.31 32.70 7.26Q32.35 7.21 32.00 7.27Q31.65 7.34 31.35 7.52L31.35 7.52Q31.91 6.85 32.65 6.48Q33.39 6.10 34.27 6.10ZM41.05 6.27L41.05 7.11Q41.16 6.86 41.39 6.68Q41.62 6.50 41.90 6.37Q42.18 6.24 42.48 6.17Q42.77 6.10 43.02 6.09L43.02 6.09Q43.55 6.06 44.07 6.24Q44.59 6.41 45.02 6.85L45.02 6.85Q45.65 7.50 45.65 8.74L45.65 8.74L45.65 13.52L43.86 13.52Q43.86 13.29 43.87 12.88Q43.88 12.47 43.88 11.99Q43.88 11.51 43.88 10.99Q43.88 10.47 43.86 10.01Q43.85 9.55 43.82 9.18Q43.79 8.82 43.75 8.65L43.75 8.65Q43.64 8.20 43.32 7.98Q43.01 7.76 42.64 7.76L42.64 7.76Q42.17 7.76 41.90 8.02Q41.64 8.27 41.64 8.69L41.64 8.69Q41.47 8.64 41.30 8.46Q41.13 8.29 41.05 8.09L41.05 8.09L41.05 8.47L41.05 13.52L39.24 13.52L39.24 6.27L41.05 6.27ZM52.00 10.72L52.00 10.72Q51.24 10.92 50.62 10.86Q49.99 10.81 49.59 10.56Q49.20 10.32 49.06 9.91Q48.93 9.49 49.14 8.97L49.14 8.97Q49.57 9.34 50.15 9.37Q50.72 9.41 51.25 9.35L51.25 9.35Q51.70 9.31 51.93 9.16Q52.16 9.00 52.22 8.80Q52.28 8.60 52.18 8.37Q52.08 8.15 51.86 7.97Q51.65 7.78 51.33 7.67Q51.02 7.56 50.64 7.57L50.64 7.57Q50.23 7.60 49.87 7.77Q49.50 7.94 49.22 8.23Q48.94 8.53 48.78 8.92Q48.61 9.31 48.59 9.79L48.59 9.79Q48.58 10.18 48.69 10.56Q48.79 10.93 49 11.25Q49.21 11.56 49.50 11.78Q49.80 12.00 50.18 12.05L50.18 12.05Q50.71 12.15 51.27 11.98Q51.83 11.82 52.26 11.37L52.26 11.37L53.73 12.08Q53.16 12.94 52.37 13.31Q51.59 13.68 50.58 13.68L50.58 13.68Q49.64 13.68 48.94 13.35Q48.23 13.02 47.76 12.47Q47.29 11.93 47.06 11.24Q46.83 10.54 46.84 9.82Q46.86 9.10 47.12 8.41Q47.39 7.71 47.89 7.18L47.89 7.18Q48.45 6.58 49.20 6.33Q49.95 6.08 50.74 6.08L50.74 6.08Q51.60 6.08 52.23 6.37Q52.86 6.66 53.26 7.12Q53.65 7.57 53.77 8.13Q53.90 8.68 53.75 9.20Q53.61 9.72 53.17 10.13Q52.74 10.54 52.00 10.72Z"></path></g><!----><!----></svg>