<svg data-v-423bf9ae="" xmlns="http://www.w3.org/2000/svg" viewBox="0 0 620.3218917507319 163" class="iconAbove"><!----><!----><!----><g data-v-423bf9ae="" id="7d88b7c3-26d1-48c4-b0f7-65e99e9f7476" fill="black" transform="matrix(4.597701082226675,0,0,4.597701082226675,-5.287361482392896,102.77011807693094)"><path d="M8.97 10.19L7.40 10.19L2.24 1.99Q2.26 2.32 2.28 2.65L2.28 2.65Q2.29 2.93 2.30 3.24Q2.31 3.55 2.31 3.79L2.31 3.79L2.31 10.19L1.15 10.19L1.15 0.56L2.67 0.56L7.88 8.82Q7.85 8.48 7.83 8.15L7.83 8.15Q7.82 7.86 7.81 7.52Q7.79 7.18 7.79 6.88L7.79 6.88L7.79 0.56L8.97 0.56L8.97 10.19ZM12.94 10.33L12.94 10.33Q11.83 10.33 11.27 9.74Q10.71 9.15 10.71 8.13L10.71 8.13Q10.71 7.40 10.98 6.93Q11.26 6.46 11.71 6.19Q12.15 5.93 12.73 5.82Q13.30 5.72 13.90 5.71L13.90 5.71L15.56 5.68L15.56 5.28Q15.56 4.82 15.46 4.50Q15.37 4.18 15.17 3.98Q14.97 3.78 14.67 3.69Q14.38 3.60 13.97 3.60L13.97 3.60Q13.62 3.60 13.33 3.65Q13.04 3.70 12.83 3.83Q12.62 3.96 12.49 4.19Q12.36 4.42 12.32 4.77L12.32 4.77L11.03 4.66Q11.10 4.22 11.29 3.85Q11.48 3.49 11.84 3.22Q12.19 2.95 12.72 2.81Q13.25 2.66 14 2.66L14 2.66Q15.39 2.66 16.10 3.30Q16.80 3.94 16.80 5.15L16.80 5.15L16.80 8.33Q16.80 8.88 16.95 9.16Q17.09 9.43 17.49 9.43L17.49 9.43Q17.60 9.43 17.70 9.42Q17.80 9.41 17.90 9.39L17.90 9.39L17.90 10.15Q17.66 10.21 17.44 10.23Q17.21 10.26 16.95 10.26L16.95 10.26Q16.60 10.26 16.35 10.17Q16.10 10.08 15.94 9.89Q15.78 9.70 15.70 9.42Q15.62 9.15 15.60 8.78L15.60 8.78L15.56 8.78Q15.36 9.13 15.12 9.42Q14.89 9.71 14.57 9.91Q14.26 10.11 13.86 10.22Q13.46 10.33 12.94 10.33ZM13.22 9.41L13.22 9.41Q13.81 9.41 14.25 9.19Q14.69 8.98 14.98 8.64Q15.27 8.31 15.42 7.91Q15.56 7.51 15.56 7.15L15.56 7.15L15.56 6.54L14.21 6.57Q13.76 6.58 13.35 6.63Q12.95 6.69 12.64 6.86Q12.33 7.03 12.15 7.34Q11.97 7.65 11.97 8.15L11.97 8.15Q11.97 8.75 12.29 9.08Q12.62 9.41 13.22 9.41ZM21.68 9.23L21.68 10.14Q21.40 10.21 21.11 10.26Q20.82 10.30 20.44 10.30L20.44 10.30Q18.96 10.30 18.96 8.63L18.96 8.63L18.96 3.69L18.11 3.69L18.11 2.80L19.01 2.80L19.37 1.14L20.19 1.14L20.19 2.80L21.56 2.80L21.56 3.69L20.19 3.69L20.19 8.36Q20.19 8.89 20.37 9.11Q20.54 9.32 20.97 9.32L20.97 9.32Q21.15 9.32 21.32 9.30Q21.49 9.27 21.68 9.23L21.68 9.23ZM24.62 10.33L24.62 10.33Q23.50 10.33 22.94 9.74Q22.38 9.15 22.38 8.13L22.38 8.13Q22.38 7.40 22.66 6.93Q22.93 6.46 23.38 6.19Q23.83 5.93 24.40 5.82Q24.98 5.72 25.57 5.71L25.57 5.71L27.23 5.68L27.23 5.28Q27.23 4.82 27.14 4.50Q27.04 4.18 26.84 3.98Q26.65 3.78 26.35 3.69Q26.05 3.60 25.65 3.60L25.65 3.60Q25.29 3.60 25.01 3.65Q24.72 3.70 24.51 3.83Q24.29 3.96 24.17 4.19Q24.04 4.42 23.99 4.77L23.99 4.77L22.71 4.66Q22.78 4.22 22.97 3.85Q23.16 3.49 23.51 3.22Q23.86 2.95 24.39 2.81Q24.92 2.66 25.68 2.66L25.68 2.66Q27.07 2.66 27.77 3.30Q28.48 3.94 28.48 5.15L28.48 5.15L28.48 8.33Q28.48 8.88 28.62 9.16Q28.77 9.43 29.17 9.43L29.17 9.43Q29.27 9.43 29.37 9.42Q29.48 9.41 29.57 9.39L29.57 9.39L29.57 10.15Q29.34 10.21 29.11 10.23Q28.88 10.26 28.62 10.26L28.62 10.26Q28.27 10.26 28.02 10.17Q27.77 10.08 27.62 9.89Q27.46 9.70 27.38 9.42Q27.30 9.15 27.28 8.78L27.28 8.78L27.23 8.78Q27.04 9.13 26.80 9.42Q26.56 9.71 26.25 9.91Q25.94 10.11 25.54 10.22Q25.14 10.33 24.62 10.33ZM24.90 9.41L24.90 9.41Q25.48 9.41 25.93 9.19Q26.37 8.98 26.66 8.64Q26.95 8.31 27.09 7.91Q27.23 7.51 27.23 7.15L27.23 7.15L27.23 6.54L25.89 6.57Q25.44 6.58 25.03 6.63Q24.62 6.69 24.32 6.86Q24.01 7.03 23.83 7.34Q23.65 7.65 23.65 8.15L23.65 8.15Q23.65 8.75 23.97 9.08Q24.29 9.41 24.90 9.41ZM31.45 6.46L31.45 6.46Q31.45 7.10 31.54 7.63Q31.64 8.16 31.86 8.55Q32.07 8.93 32.43 9.15Q32.79 9.36 33.32 9.36L33.32 9.36Q33.97 9.36 34.42 9.00Q34.86 8.65 34.96 7.91L34.96 7.91L36.20 7.99Q36.14 8.45 35.94 8.87Q35.73 9.30 35.38 9.62Q35.03 9.94 34.52 10.13Q34.02 10.33 33.35 10.33L33.35 10.33Q32.48 10.33 31.88 10.04Q31.27 9.74 30.89 9.23Q30.51 8.71 30.34 8.01Q30.17 7.31 30.17 6.49L30.17 6.49Q30.17 5.74 30.29 5.17Q30.41 4.60 30.64 4.17Q30.86 3.75 31.16 3.46Q31.46 3.17 31.81 2.99Q32.16 2.82 32.55 2.74Q32.94 2.66 33.34 2.66L33.34 2.66Q33.96 2.66 34.45 2.83Q34.93 3.00 35.28 3.30Q35.64 3.60 35.85 4.00Q36.07 4.40 36.16 4.87L36.16 4.87L34.90 4.96Q34.80 4.35 34.41 3.99Q34.02 3.62 33.30 3.62L33.30 3.62Q32.78 3.62 32.43 3.80Q32.07 3.97 31.86 4.32Q31.64 4.68 31.54 5.21Q31.45 5.74 31.45 6.46ZM38.72 4.06L38.74 4.06Q38.94 3.68 39.18 3.42Q39.42 3.16 39.71 2.99Q40.00 2.82 40.34 2.74Q40.68 2.66 41.10 2.66L41.10 2.66Q41.82 2.66 42.27 2.85Q42.72 3.04 42.99 3.39Q43.25 3.73 43.35 4.21Q43.45 4.69 43.45 5.26L43.45 5.26L43.45 10.19L42.21 10.19L42.21 5.50Q42.21 5.03 42.15 4.68Q42.10 4.32 41.93 4.08Q41.77 3.85 41.47 3.73Q41.17 3.61 40.69 3.61L40.69 3.61Q40.25 3.61 39.90 3.77Q39.55 3.92 39.30 4.21Q39.05 4.50 38.91 4.91Q38.77 5.32 38.77 5.83L38.77 5.83L38.77 10.19L37.54 10.19L37.54 0.05L38.77 0.05L38.77 2.69Q38.77 2.91 38.77 3.14Q38.76 3.36 38.75 3.55Q38.74 3.75 38.73 3.88Q38.73 4.01 38.72 4.06L38.72 4.06ZM47.19 10.33L47.19 10.33Q46.07 10.33 45.51 9.74Q44.95 9.15 44.95 8.13L44.95 8.13Q44.95 7.40 45.23 6.93Q45.51 6.46 45.95 6.19Q46.40 5.93 46.98 5.82Q47.55 5.72 48.15 5.71L48.15 5.71L49.81 5.68L49.81 5.28Q49.81 4.82 49.71 4.50Q49.62 4.18 49.42 3.98Q49.22 3.78 48.92 3.69Q48.62 3.60 48.22 3.60L48.22 3.60Q47.87 3.60 47.58 3.65Q47.29 3.70 47.08 3.83Q46.87 3.96 46.74 4.19Q46.61 4.42 46.57 4.77L46.57 4.77L45.28 4.66Q45.35 4.22 45.54 3.85Q45.73 3.49 46.08 3.22Q46.44 2.95 46.97 2.81Q47.50 2.66 48.25 2.66L48.25 2.66Q49.64 2.66 50.35 3.30Q51.05 3.94 51.05 5.15L51.05 5.15L51.05 8.33Q51.05 8.88 51.19 9.16Q51.34 9.43 51.74 9.43L51.74 9.43Q51.84 9.43 51.95 9.42Q52.05 9.41 52.14 9.39L52.14 9.39L52.14 10.15Q51.91 10.21 51.68 10.23Q51.45 10.26 51.19 10.26L51.19 10.26Q50.85 10.26 50.60 10.17Q50.35 10.08 50.19 9.89Q50.03 9.70 49.95 9.42Q49.87 9.15 49.85 8.78L49.85 8.78L49.81 8.78Q49.61 9.13 49.37 9.42Q49.14 9.71 48.82 9.91Q48.51 10.11 48.11 10.22Q47.71 10.33 47.19 10.33ZM47.47 9.41L47.47 9.41Q48.06 9.41 48.50 9.19Q48.94 8.98 49.23 8.64Q49.52 8.31 49.66 7.91Q49.81 7.51 49.81 7.15L49.81 7.15L49.81 6.54L48.46 6.57Q48.01 6.58 47.60 6.63Q47.20 6.69 46.89 6.86Q46.58 7.03 46.40 7.34Q46.22 7.65 46.22 8.15L46.22 8.15Q46.22 8.75 46.54 9.08Q46.87 9.41 47.47 9.41ZM64.63 3.46L64.63 3.46Q64.63 4.09 64.43 4.63Q64.22 5.17 63.80 5.57Q63.39 5.97 62.77 6.21Q62.15 6.44 61.32 6.44L61.32 6.44L58.49 6.44L58.49 10.19L57.18 10.19L57.18 0.56L61.24 0.56Q62.09 0.56 62.73 0.77Q63.36 0.98 63.79 1.36Q64.21 1.74 64.42 2.27Q64.63 2.81 64.63 3.46ZM63.32 3.47L63.32 3.47Q63.32 2.56 62.76 2.08Q62.20 1.61 61.08 1.61L61.08 1.61L58.49 1.61L58.49 5.41L61.13 5.41Q62.26 5.41 62.79 4.91Q63.32 4.41 63.32 3.47ZM67.57 10.19L66.34 10.19L66.34 4.52Q66.34 4.29 66.34 4.04Q66.34 3.80 66.33 3.58Q66.32 3.35 66.32 3.15Q66.31 2.95 66.30 2.80L66.30 2.80L67.46 2.80Q67.47 2.95 67.48 3.15Q67.49 3.36 67.50 3.57Q67.51 3.78 67.52 3.98Q67.52 4.17 67.52 4.31L67.52 4.31L67.55 4.31Q67.68 3.88 67.82 3.57Q67.97 3.26 68.17 3.06Q68.37 2.86 68.64 2.76Q68.91 2.66 69.30 2.66L69.30 2.66Q69.45 2.66 69.59 2.68Q69.73 2.71 69.80 2.73L69.80 2.73L69.80 3.86Q69.68 3.82 69.51 3.80Q69.35 3.79 69.15 3.79L69.15 3.79Q68.72 3.79 68.42 3.98Q68.13 4.17 67.94 4.51Q67.75 4.85 67.66 5.31Q67.57 5.78 67.57 6.34L67.57 6.34L67.57 10.19ZM77.23 6.49L77.23 6.49Q77.23 8.43 76.38 9.38Q75.52 10.33 73.90 10.33L73.90 10.33Q73.12 10.33 72.52 10.10Q71.91 9.86 71.49 9.39Q71.07 8.91 70.84 8.19Q70.62 7.46 70.62 6.49L70.62 6.49Q70.62 2.66 73.94 2.66L73.94 2.66Q74.80 2.66 75.42 2.90Q76.05 3.14 76.45 3.62Q76.85 4.09 77.04 4.81Q77.23 5.53 77.23 6.49ZM75.94 6.49L75.94 6.49Q75.94 5.63 75.81 5.07Q75.67 4.50 75.42 4.17Q75.16 3.83 74.79 3.70Q74.42 3.57 73.96 3.57L73.96 3.57Q73.49 3.57 73.11 3.71Q72.73 3.85 72.46 4.19Q72.19 4.53 72.05 5.09Q71.91 5.65 71.91 6.49L71.91 6.49Q71.91 7.35 72.06 7.91Q72.21 8.48 72.48 8.81Q72.74 9.15 73.10 9.28Q73.46 9.42 73.88 9.42L73.88 9.42Q74.35 9.42 74.74 9.29Q75.12 9.15 75.39 8.82Q75.65 8.48 75.80 7.92Q75.94 7.35 75.94 6.49ZM87.12 1.48L87.12 1.48Q86.30 1.48 85.67 1.76Q85.04 2.03 84.61 2.54Q84.18 3.04 83.97 3.75Q83.75 4.46 83.75 5.33L83.75 5.33Q83.75 6.20 83.98 6.92Q84.22 7.64 84.66 8.16Q85.10 8.68 85.74 8.97Q86.38 9.26 87.18 9.26L87.18 9.26Q87.74 9.26 88.20 9.11Q88.66 8.96 89.03 8.70Q89.41 8.43 89.70 8.06Q90.00 7.70 90.22 7.25L90.22 7.25L91.29 7.79Q91.03 8.33 90.64 8.79Q90.26 9.26 89.75 9.60Q89.23 9.94 88.58 10.13Q87.92 10.33 87.12 10.33L87.12 10.33Q85.95 10.33 85.07 9.96Q84.19 9.58 83.60 8.92Q83.01 8.25 82.71 7.33Q82.42 6.42 82.42 5.33L82.42 5.33Q82.42 4.20 82.73 3.29Q83.04 2.39 83.64 1.75Q84.24 1.11 85.11 0.76Q85.99 0.42 87.11 0.42L87.11 0.42Q88.65 0.42 89.68 1.02Q90.71 1.62 91.20 2.80L91.20 2.80L89.96 3.21Q89.82 2.87 89.59 2.56Q89.36 2.25 89.01 2.01Q88.66 1.77 88.19 1.63Q87.73 1.48 87.12 1.48ZM93.99 10.19L92.76 10.19L92.76 0.05L93.99 0.05L93.99 10.19ZM102.09 6.75L96.82 6.75Q96.82 7.33 96.94 7.82Q97.06 8.31 97.31 8.66Q97.56 9.02 97.95 9.21Q98.33 9.41 98.88 9.41L98.88 9.41Q99.68 9.41 100.16 9.08Q100.65 8.76 100.82 8.27L100.82 8.27L101.90 8.58Q101.78 8.89 101.57 9.20Q101.36 9.51 101.01 9.76Q100.67 10.01 100.14 10.17Q99.62 10.33 98.88 10.33L98.88 10.33Q97.24 10.33 96.38 9.35Q95.53 8.37 95.53 6.45L95.53 6.45Q95.53 5.41 95.79 4.69Q96.04 3.96 96.50 3.51Q96.95 3.06 97.55 2.86Q98.15 2.66 98.83 2.66L98.83 2.66Q99.76 2.66 100.39 2.96Q101.01 3.26 101.39 3.79Q101.77 4.32 101.93 5.04Q102.09 5.76 102.09 6.59L102.09 6.59L102.09 6.75ZM96.83 5.81L100.82 5.81Q100.72 4.64 100.23 4.10Q99.74 3.57 98.81 3.57L98.81 3.57Q98.51 3.57 98.17 3.67Q97.83 3.77 97.54 4.02Q97.25 4.27 97.06 4.71Q96.86 5.14 96.83 5.81L96.83 5.81ZM105.55 10.33L105.55 10.33Q104.43 10.33 103.87 9.74Q103.31 9.15 103.31 8.13L103.31 8.13Q103.31 7.40 103.59 6.93Q103.87 6.46 104.31 6.19Q104.76 5.93 105.33 5.82Q105.91 5.72 106.50 5.71L106.50 5.71L108.17 5.68L108.17 5.28Q108.17 4.82 108.07 4.50Q107.97 4.18 107.78 3.98Q107.58 3.78 107.28 3.69Q106.98 3.60 106.58 3.60L106.58 3.60Q106.22 3.60 105.94 3.65Q105.65 3.70 105.44 3.83Q105.23 3.96 105.10 4.19Q104.97 4.42 104.92 4.77L104.92 4.77L103.64 4.66Q103.71 4.22 103.90 3.85Q104.09 3.49 104.44 3.22Q104.79 2.95 105.32 2.81Q105.85 2.66 106.61 2.66L106.61 2.66Q108.00 2.66 108.71 3.30Q109.41 3.94 109.41 5.15L109.41 5.15L109.41 8.33Q109.41 8.88 109.55 9.16Q109.70 9.43 110.10 9.43L110.10 9.43Q110.20 9.43 110.30 9.42Q110.41 9.41 110.50 9.39L110.50 9.39L110.50 10.15Q110.27 10.21 110.04 10.23Q109.81 10.26 109.55 10.26L109.55 10.26Q109.20 10.26 108.95 10.17Q108.71 10.08 108.55 9.89Q108.39 9.70 108.31 9.42Q108.23 9.15 108.21 8.78L108.21 8.78L108.17 8.78Q107.97 9.13 107.73 9.42Q107.50 9.71 107.18 9.91Q106.87 10.11 106.47 10.22Q106.07 10.33 105.55 10.33ZM105.83 9.41L105.83 9.41Q106.42 9.41 106.86 9.19Q107.30 8.98 107.59 8.64Q107.88 8.31 108.02 7.91Q108.17 7.51 108.17 7.15L108.17 7.15L108.17 6.54L106.82 6.57Q106.37 6.58 105.96 6.63Q105.55 6.69 105.25 6.86Q104.94 7.03 104.76 7.34Q104.58 7.65 104.58 8.15L104.58 8.15Q104.58 8.75 104.90 9.08Q105.23 9.41 105.83 9.41ZM117.38 10.19L116.14 10.19L116.14 5.50Q116.14 4.96 116.06 4.60Q115.99 4.24 115.81 4.02Q115.63 3.79 115.34 3.70Q115.05 3.61 114.62 3.61L114.62 3.61Q114.18 3.61 113.83 3.76Q113.48 3.92 113.23 4.21Q112.98 4.50 112.84 4.93Q112.70 5.35 112.70 5.91L112.70 5.91L112.70 10.19L111.47 10.19L111.47 4.38Q111.47 4.14 111.47 3.89Q111.47 3.63 111.46 3.40Q111.45 3.17 111.45 3.01Q111.44 2.84 111.43 2.80L111.43 2.80L112.59 2.80Q112.60 2.83 112.61 2.98Q112.62 3.13 112.63 3.33Q112.64 3.52 112.64 3.72Q112.65 3.92 112.65 4.06L112.65 4.06L112.67 4.06Q112.85 3.74 113.06 3.48Q113.27 3.22 113.55 3.04Q113.83 2.86 114.19 2.76Q114.56 2.66 115.04 2.66L115.04 2.66Q115.65 2.66 116.09 2.81Q116.54 2.96 116.83 3.27Q117.11 3.59 117.25 4.08Q117.38 4.58 117.38 5.26L117.38 5.26L117.38 10.19ZM120.46 1.22L119.23 1.22L119.23 0.05L120.46 0.05L120.46 1.22ZM120.46 10.19L119.23 10.19L119.23 2.80L120.46 2.80L120.46 10.19ZM128.28 10.19L127.04 10.19L127.04 5.50Q127.04 4.96 126.96 4.60Q126.88 4.24 126.70 4.02Q126.53 3.79 126.24 3.70Q125.95 3.61 125.51 3.61L125.51 3.61Q125.08 3.61 124.73 3.76Q124.37 3.92 124.12 4.21Q123.87 4.50 123.74 4.93Q123.60 5.35 123.60 5.91L123.60 5.91L123.60 10.19L122.37 10.19L122.37 4.38Q122.37 4.14 122.37 3.89Q122.36 3.63 122.36 3.40Q122.35 3.17 122.34 3.01Q122.34 2.84 122.33 2.80L122.33 2.80L123.49 2.80Q123.50 2.83 123.50 2.98Q123.51 3.13 123.52 3.33Q123.53 3.52 123.54 3.72Q123.55 3.92 123.55 4.06L123.55 4.06L123.57 4.06Q123.74 3.74 123.96 3.48Q124.17 3.22 124.45 3.04Q124.73 2.86 125.09 2.76Q125.45 2.66 125.93 2.66L125.93 2.66Q126.55 2.66 126.99 2.81Q127.44 2.96 127.72 3.27Q128.01 3.59 128.14 4.08Q128.28 4.58 128.28 5.26L128.28 5.26L128.28 10.19ZM132.93 13.10L132.93 13.10Q132.30 13.10 131.80 12.97Q131.31 12.84 130.96 12.60Q130.61 12.35 130.40 12.02Q130.18 11.68 130.08 11.27L130.08 11.27L131.32 11.09Q131.44 11.61 131.86 11.88Q132.28 12.16 132.97 12.16L132.97 12.16Q133.38 12.16 133.72 12.04Q134.07 11.93 134.31 11.67Q134.54 11.42 134.67 11.01Q134.80 10.60 134.80 10.01L134.80 10.01L134.80 8.82L134.79 8.82Q134.65 9.10 134.45 9.35Q134.25 9.61 133.96 9.81Q133.67 10.01 133.29 10.13Q132.90 10.25 132.41 10.25L132.41 10.25Q131.71 10.25 131.21 10.01Q130.70 9.78 130.39 9.30Q130.07 8.83 129.92 8.13Q129.77 7.43 129.77 6.51L129.77 6.51Q129.77 5.62 129.92 4.91Q130.07 4.20 130.40 3.70Q130.73 3.21 131.26 2.94Q131.79 2.68 132.55 2.68L132.55 2.68Q133.33 2.68 133.91 3.04Q134.49 3.40 134.80 4.06L134.80 4.06L134.82 4.06Q134.82 3.89 134.83 3.68Q134.84 3.47 134.85 3.28Q134.86 3.09 134.87 2.95Q134.89 2.82 134.90 2.80L134.90 2.80L136.07 2.80Q136.06 2.86 136.06 3.00Q136.05 3.15 136.04 3.36Q136.04 3.56 136.03 3.81Q136.03 4.06 136.03 4.33L136.03 4.33L136.03 9.98Q136.03 11.53 135.27 12.31Q134.50 13.10 132.93 13.10ZM134.80 6.49L134.80 6.49Q134.80 5.72 134.64 5.17Q134.47 4.62 134.20 4.27Q133.92 3.92 133.57 3.76Q133.22 3.60 132.85 3.60L132.85 3.60Q132.38 3.60 132.04 3.76Q131.70 3.92 131.48 4.28Q131.26 4.63 131.15 5.18Q131.04 5.73 131.04 6.49L131.04 6.49Q131.04 7.29 131.15 7.84Q131.26 8.38 131.48 8.72Q131.69 9.05 132.03 9.19Q132.36 9.34 132.83 9.34L132.83 9.34Q133.20 9.34 133.55 9.18Q133.90 9.02 134.18 8.68Q134.46 8.34 134.63 7.80Q134.80 7.26 134.80 6.49Z"></path></g><!----><g data-v-423bf9ae="" id="9a23ea89-cce9-446f-b965-fa4a181ebc73" transform="matrix(2.8125,0,0,2.8125,266,0)" stroke="none" fill="black"><path d="M0 32h32V0H0v32zM2.038 2.038h27.923v27.923H2.038V2.038z"></path><path d="M4.038 27.962h23.923V4.038H4.038v23.924zM21.049 8.25h3.402v3.402h-3.402V8.25zm0 6.049h3.402v3.402h-3.402v-3.402zm0 6.049h3.402v3.402h-3.402v-3.402zM14.299 8.25h3.402v3.402h-3.402V8.25zm0 6.049h3.402v3.402h-3.402v-3.402zm0 6.049h3.402v3.402h-3.402v-3.402zM7.549 8.25h3.402v3.402H7.549V8.25zm0 6.049h3.402v3.402H7.549v-3.402zm0 6.049h3.402v3.402H7.549v-3.402z"></path></g><!----></svg>