<svg data-v-fde0c5aa="" xmlns="http://www.w3.org/2000/svg" viewBox="0 0 300 300" class="iconAbove"><!----><defs data-v-fde0c5aa=""><!----></defs><rect data-v-fde0c5aa="" fill="#3288AF" x="0" y="0" width="300px" height="300px" class="logo-background-square"></rect><defs data-v-fde0c5aa=""><!----></defs><g data-v-fde0c5aa="" id="329c04db-dbb0-4b1d-af72-f8a3d7f9eceb" fill="#EBE3D5" transform="matrix(2.0040079311827936,0,0,2.0040079311827936,17.815631288119775,165.91382793593192)"><path d="M2.61 13.33L1.57 13.33Q1.09 13.33 1.09 12.82L1.09 12.82L1.09 4.04Q1.09 3.53 1.57 3.53L1.57 3.53L6.98 3.53Q7.49 3.53 7.49 3.97L7.49 3.97L7.49 4.78Q7.49 5.22 6.98 5.22L6.98 5.22L3.09 5.22L3.09 7.60L6.42 7.60Q6.93 7.60 6.93 8.05L6.93 8.05L6.93 8.85Q6.93 9.30 6.42 9.30L6.42 9.30L3.09 9.30L3.09 12.82Q3.09 13.33 2.61 13.33L2.61 13.33ZM8.59 11.42L8.59 11.42Q8.59 10.05 9.89 9.43Q11.20 8.82 12.87 8.78L12.87 8.78L12.87 8.50Q12.87 7.88 12.56 7.62Q12.24 7.36 11.68 7.36L11.68 7.36Q11.29 7.36 10.98 7.47Q10.68 7.58 10.46 7.73Q10.23 7.88 10.06 8.03L10.06 8.03Q9.74 8.30 9.54 8.05L9.54 8.05L8.97 7.36Q8.76 7.10 9.07 6.82L9.07 6.82Q9.31 6.61 9.63 6.45Q9.95 6.30 10.47 6.16Q11.00 6.02 11.84 6.02L11.84 6.02Q13.26 6.02 14.02 6.67Q14.79 7.33 14.79 8.61L14.79 8.61L14.79 12.92Q14.79 13.33 14.38 13.33L14.38 13.33L13.25 13.33Q12.89 13.33 12.89 12.92L12.89 12.92L12.89 12.71L12.87 12.71Q12.47 13.10 11.90 13.29Q11.34 13.47 10.87 13.47L10.87 13.47Q9.75 13.47 9.17 12.92Q8.59 12.37 8.59 11.42ZM10.61 11.38L10.61 11.38Q10.61 11.61 10.71 11.79Q10.80 11.96 11.01 12.04Q11.21 12.13 11.46 12.13L11.46 12.13Q11.81 12.13 12.14 12.03Q12.47 11.94 12.87 11.58L12.87 11.58L12.87 10.10Q11.72 10.23 11.33 10.43Q10.94 10.64 10.78 10.86Q10.61 11.07 10.61 11.38ZM18.15 13.33L17.06 13.33Q16.65 13.33 16.65 12.92L16.65 12.92L16.65 6.56Q16.65 6.15 17.06 6.15L17.06 6.15L18.14 6.15Q18.55 6.15 18.55 6.56L18.55 6.56L18.55 6.96L18.57 6.96Q18.77 6.52 19.24 6.27Q19.71 6.02 20.13 6.02L20.13 6.02Q20.95 6.02 21.40 6.40Q21.85 6.78 22.03 7.25L22.03 7.25L22.05 7.25Q22.65 6.48 23.13 6.25Q23.61 6.02 24.36 6.02L24.36 6.02Q25.38 6.02 26.07 6.69Q26.76 7.36 26.76 9.13L26.76 9.13L26.76 12.92Q26.76 13.33 26.35 13.33L26.35 13.33L25.26 13.33Q24.85 13.33 24.85 12.92L24.85 12.92L24.85 9.63Q24.85 8.13 24.65 7.75Q24.45 7.36 23.93 7.36L23.93 7.36Q23.45 7.36 23.06 7.92Q22.66 8.48 22.66 10.23L22.66 10.23L22.66 12.92Q22.66 13.33 22.25 13.33L22.25 13.33L21.16 13.33Q20.75 13.33 20.75 12.92L20.75 12.92L20.75 9.63Q20.75 8.13 20.55 7.75Q20.34 7.36 19.83 7.36L19.83 7.36Q19.35 7.36 18.96 7.91Q18.56 8.47 18.56 10.23L18.56 10.23L18.56 12.92Q18.56 13.33 18.15 13.33L18.15 13.33ZM30.11 13.33L29.02 13.33Q28.61 13.33 28.61 12.92L28.61 12.92L28.61 6.56Q28.61 6.15 29.02 6.15L29.02 6.15L30.11 6.15Q30.52 6.15 30.52 6.56L30.52 6.56L30.52 12.92Q30.52 13.33 30.11 13.33L30.11 13.33ZM30.11 5.10L29.02 5.10Q28.61 5.10 28.61 4.69L28.61 4.69L28.61 3.81Q28.61 3.40 29.02 3.40L29.02 3.40L30.11 3.40Q30.52 3.40 30.52 3.81L30.52 3.81L30.52 4.69Q30.52 5.10 30.11 5.10L30.11 5.10ZM33.89 13.33L32.79 13.33Q32.38 13.33 32.38 12.92L32.38 12.92L32.38 4.85Q32.38 4.54 32.53 4.29L32.53 4.29L33.05 3.36Q33.20 3.10 33.41 3.10L33.41 3.10L33.89 3.10Q34.30 3.10 34.30 3.51L34.30 3.51L34.30 12.92Q34.30 13.33 33.89 13.33L33.89 13.33ZM37.81 13.33L35.53 6.69Q35.34 6.15 35.75 6.15L35.75 6.15L36.98 6.15Q37.29 6.15 37.39 6.50L37.39 6.50L38.42 10.32Q38.49 10.59 38.55 11.01Q38.61 11.43 38.61 11.55L38.61 11.55L38.65 11.55Q38.73 11.18 38.77 10.97Q38.81 10.75 38.98 10.13L38.98 10.13L39.96 6.50Q40.05 6.15 40.37 6.15L40.37 6.15L41.59 6.15Q41.99 6.15 41.82 6.69L41.82 6.69L39.51 13.62Q39.11 14.83 38.52 15.52Q37.93 16.20 36.89 16.20L36.89 16.20Q36.31 16.20 35.86 16.11L35.86 16.11Q35.60 16.05 35.66 15.75L35.66 15.75L35.81 15.00Q35.88 14.70 36.16 14.79L36.16 14.79Q36.37 14.86 36.56 14.86L36.56 14.86Q37.11 14.86 37.40 14.33Q37.69 13.81 37.79 13.43L37.79 13.43L37.81 13.33ZM49.39 13.33L48.35 13.33Q47.87 13.33 47.87 12.82L47.87 12.82L47.87 4.04Q47.87 3.53 48.35 3.53L48.35 3.53L50.91 3.53Q53.37 3.53 54.32 4.33Q55.28 5.13 55.28 6.60L55.28 6.60Q55.28 8.07 54.32 8.87Q53.37 9.67 50.91 9.67L50.91 9.67L49.87 9.67L49.87 12.82Q49.87 13.33 49.39 13.33L49.39 13.33ZM49.87 5.20L49.87 8.00L50.90 8.00Q52.27 8.00 52.76 7.67Q53.25 7.35 53.25 6.60L53.25 6.60Q53.25 5.84 52.76 5.52Q52.27 5.20 50.90 5.20L50.90 5.20L49.87 5.20ZM58.29 13.33L57.20 13.33Q56.79 13.33 56.79 12.92L56.79 12.92L56.79 6.56Q56.79 6.15 57.20 6.15L57.20 6.15L58.28 6.15Q58.69 6.15 58.69 6.56L58.69 6.56L58.69 7.12L58.71 7.12Q58.89 6.69 59.31 6.35Q59.73 6.02 60.29 6.02L60.29 6.02Q60.68 6.02 60.94 6.11L60.94 6.11Q61.17 6.20 61.12 6.44L61.12 6.44L60.93 7.25Q60.87 7.53 60.56 7.42L60.56 7.42Q60.38 7.36 60.22 7.36L60.22 7.36Q59.56 7.36 59.13 8.14Q58.70 8.93 58.70 10.43L58.70 10.43L58.70 12.92Q58.70 13.33 58.29 13.33L58.29 13.33ZM61.78 9.74L61.78 9.74Q61.78 8.00 62.68 7.01Q63.57 6.02 65.35 6.02L65.35 6.02Q67.13 6.02 68.03 7.01Q68.93 8.00 68.93 9.74L68.93 9.74Q68.93 11.48 68.03 12.48Q67.13 13.47 65.35 13.47L65.35 13.47Q63.57 13.47 62.68 12.48Q61.78 11.48 61.78 9.74ZM63.80 9.74L63.80 9.74Q63.80 11.04 64.20 11.58Q64.60 12.13 65.35 12.13L65.35 12.13Q66.10 12.13 66.50 11.58Q66.90 11.04 66.90 9.74L66.90 9.74Q66.90 8.44 66.50 7.90Q66.10 7.36 65.35 7.36L65.35 7.36Q64.60 7.36 64.20 7.90Q63.80 8.44 63.80 9.74ZM74.85 8.43L74.85 8.43Q74.85 6.07 76.04 4.68Q77.24 3.29 79.50 3.29L79.50 3.29Q80.79 3.29 81.70 3.70Q82.60 4.10 82.97 4.87L82.97 4.87Q83.21 5.37 82.89 5.55L82.89 5.55L82.07 5.99Q81.63 6.22 81.35 5.73L81.35 5.73Q81.18 5.41 80.69 5.16Q80.21 4.91 79.56 4.91L79.56 4.91Q78.13 4.91 77.55 5.81Q76.98 6.72 76.98 8.43L76.98 8.43Q76.98 10.14 77.55 11.04Q78.13 11.95 79.56 11.95L79.56 11.95Q80.34 11.95 80.87 11.60Q81.40 11.25 81.60 10.94L81.60 10.94Q81.94 10.42 82.31 10.68L82.31 10.68L83.13 11.22Q83.47 11.45 83.20 11.91L83.20 11.91Q82.80 12.59 81.84 13.08Q80.88 13.56 79.50 13.56L79.50 13.56Q77.27 13.56 76.06 12.17Q74.85 10.79 74.85 8.43ZM86.39 13.33L85.29 13.33Q84.88 13.33 84.88 12.92L84.88 12.92L84.88 4.85Q84.88 4.54 85.03 4.29L85.03 4.29L85.55 3.36Q85.70 3.10 85.91 3.10L85.91 3.10L86.39 3.10Q86.80 3.10 86.80 3.51L86.80 3.51L86.80 12.92Q86.80 13.33 86.39 13.33L86.39 13.33ZM88.27 9.74L88.27 9.74Q88.27 8.01 89.14 7.01Q90.00 6.02 91.58 6.02L91.58 6.02Q93.41 6.02 94.30 6.96Q95.19 7.90 95.19 9.99L95.19 9.99Q95.19 10.40 94.81 10.40L94.81 10.40L90.30 10.40Q90.41 11.54 90.86 11.83Q91.31 12.13 91.90 12.13L91.90 12.13Q92.47 12.13 92.77 11.98Q93.07 11.83 93.28 11.57L93.28 11.57Q93.51 11.27 93.85 11.47L93.85 11.47L94.53 11.89Q94.94 12.13 94.65 12.48L94.65 12.48Q94.23 12.97 93.67 13.22Q93.11 13.47 91.90 13.47L91.90 13.47Q89.94 13.47 89.11 12.47Q88.27 11.47 88.27 9.74ZM90.30 9.04L90.30 9.04L93.28 9.04Q93.28 8.30 92.91 7.83Q92.54 7.36 91.73 7.36L91.73 7.36Q91.09 7.36 90.71 7.81Q90.34 8.26 90.30 9.04ZM96.30 11.42L96.30 11.42Q96.30 10.05 97.60 9.43Q98.91 8.82 100.58 8.78L100.58 8.78L100.58 8.50Q100.58 7.88 100.27 7.62Q99.96 7.36 99.39 7.36L99.39 7.36Q99.00 7.36 98.69 7.47Q98.39 7.58 98.17 7.73Q97.95 7.88 97.77 8.03L97.77 8.03Q97.45 8.30 97.25 8.05L97.25 8.05L96.68 7.36Q96.47 7.10 96.78 6.82L96.78 6.82Q97.02 6.61 97.34 6.45Q97.66 6.30 98.18 6.16Q98.71 6.02 99.55 6.02L99.55 6.02Q100.97 6.02 101.74 6.67Q102.50 7.33 102.50 8.61L102.50 8.61L102.50 12.92Q102.50 13.33 102.09 13.33L102.09 13.33L100.97 13.33Q100.60 13.33 100.60 12.92L100.60 12.92L100.60 12.71L100.58 12.71Q100.18 13.10 99.62 13.29Q99.05 13.47 98.58 13.47L98.58 13.47Q97.46 13.47 96.88 12.92Q96.30 12.37 96.30 11.42ZM98.32 11.38L98.32 11.38Q98.32 11.61 98.42 11.79Q98.51 11.96 98.72 12.04Q98.92 12.13 99.18 12.13L99.18 12.13Q99.52 12.13 99.85 12.03Q100.18 11.94 100.58 11.58L100.58 11.58L100.58 10.10Q99.44 10.23 99.05 10.43Q98.66 10.64 98.49 10.86Q98.32 11.07 98.32 11.38ZM105.86 13.33L104.77 13.33Q104.36 13.33 104.36 12.92L104.36 12.92L104.36 6.56Q104.36 6.15 104.77 6.15L104.77 6.15L105.85 6.15Q106.26 6.15 106.26 6.56L106.26 6.56L106.26 6.96L106.29 6.96Q106.60 6.42 107.08 6.22Q107.57 6.02 108.25 6.02L108.25 6.02Q109.32 6.02 110.02 6.69Q110.71 7.36 110.71 9.13L110.71 9.13L110.71 12.92Q110.71 13.33 110.30 13.33L110.30 13.33L109.21 13.33Q108.80 13.33 108.80 12.92L108.80 12.92L108.80 9.63Q108.80 8.13 108.60 7.75Q108.39 7.36 107.71 7.36L107.71 7.36Q107.00 7.36 106.63 7.91Q106.27 8.47 106.27 10.23L106.27 10.23L106.27 12.92Q106.27 13.33 105.86 13.33L105.86 13.33ZM114.06 13.33L112.97 13.33Q112.56 13.33 112.56 12.92L112.56 12.92L112.56 6.56Q112.56 6.15 112.97 6.15L112.97 6.15L114.06 6.15Q114.47 6.15 114.47 6.56L114.47 6.56L114.47 12.92Q114.47 13.33 114.06 13.33L114.06 13.33ZM114.06 5.10L112.97 5.10Q112.56 5.10 112.56 4.69L112.56 4.69L112.56 3.81Q112.56 3.40 112.97 3.40L112.97 3.40L114.06 3.40Q114.47 3.40 114.47 3.81L114.47 3.81L114.47 4.69Q114.47 5.10 114.06 5.10L114.06 5.10ZM117.84 13.33L116.74 13.33Q116.33 13.33 116.33 12.92L116.33 12.92L116.33 6.56Q116.33 6.15 116.74 6.15L116.74 6.15L117.82 6.15Q118.23 6.15 118.23 6.56L118.23 6.56L118.23 6.96L118.26 6.96Q118.58 6.42 119.06 6.22Q119.55 6.02 120.23 6.02L120.23 6.02Q121.30 6.02 121.99 6.69Q122.69 7.36 122.69 9.13L122.69 9.13L122.69 12.92Q122.69 13.33 122.28 13.33L122.28 13.33L121.19 13.33Q120.78 13.33 120.78 12.92L120.78 12.92L120.78 9.63Q120.78 8.13 120.57 7.75Q120.37 7.36 119.69 7.36L119.69 7.36Q118.97 7.36 118.61 7.91Q118.25 8.47 118.25 10.23L118.25 10.23L118.25 12.92Q118.25 13.33 117.84 13.33L117.84 13.33ZM124.15 9.74L124.15 9.74Q124.15 8.24 124.81 7.13Q125.46 6.02 127.07 6.02L127.07 6.02Q127.68 6.02 128.12 6.19Q128.56 6.37 128.91 6.96L128.91 6.96L128.94 6.96L128.97 6.56Q128.99 6.15 129.34 6.15L129.34 6.15L130.42 6.15Q130.83 6.15 130.83 6.56L130.83 6.56L130.83 13.25Q130.83 14.93 129.92 15.57Q129.02 16.20 127.31 16.20L127.31 16.20Q126.59 16.20 125.97 16.13Q125.36 16.05 124.73 15.75L124.73 15.75Q124.40 15.59 124.62 15.16L124.62 15.16L124.87 14.66Q125.02 14.36 125.36 14.53L125.36 14.53Q125.64 14.66 126.06 14.76Q126.47 14.86 127.11 14.86L127.11 14.86Q127.98 14.86 128.45 14.54Q128.91 14.21 128.91 13.12L128.91 13.12L128.91 13.00Q128.91 12.73 128.94 12.46L128.94 12.46L128.91 12.46Q128.56 13.04 128.12 13.22Q127.68 13.40 127.07 13.40L127.07 13.40Q125.46 13.40 124.81 12.29Q124.15 11.18 124.15 9.74ZM126.18 9.74L126.18 9.74Q126.18 10.77 126.46 11.41Q126.75 12.06 127.67 12.06L127.67 12.06Q128.18 12.06 128.55 11.48Q128.91 10.90 128.91 9.98L128.91 9.98L128.91 9.43Q128.91 8.51 128.55 7.93Q128.18 7.36 127.67 7.36L127.67 7.36Q126.75 7.36 126.46 8.00Q126.18 8.65 126.18 9.74Z"></path></g><defs data-v-fde0c5aa=""><!----></defs><g data-v-fde0c5aa="" id="695433f5-91e0-4005-afac-98df3dc962fa" stroke="none" fill="#EBE3D5" transform="matrix(1.6407815414351847,0,0,1.6407815414351847,123.74749533703704,101.62124300555557)"><path d="M0 32h32V0H0v32zM2.038 2.038h27.923v27.923H2.038V2.038z"></path><path d="M4.038 27.962h23.923V4.038H4.038v23.924zM21.049 8.25h3.402v3.402h-3.402V8.25zm0 6.049h3.402v3.402h-3.402v-3.402zm0 6.049h3.402v3.402h-3.402v-3.402zM14.299 8.25h3.402v3.402h-3.402V8.25zm0 6.049h3.402v3.402h-3.402v-3.402zm0 6.049h3.402v3.402h-3.402v-3.402zM7.549 8.25h3.402v3.402H7.549V8.25zm0 6.049h3.402v3.402H7.549v-3.402zm0 6.049h3.402v3.402H7.549v-3.402z"></path></g><!----></svg>